<?xml version="1.0" standalone="no"?>
<!DOCTYPE svg PUBLIC "-//W3C//DTD SVG 20010904//EN"
 "http://www.w3.org/TR/2001/REC-SVG-20010904/DTD/svg10.dtd">
<svg version="1.0" xmlns="http://www.w3.org/2000/svg"
 width="290.000000pt" height="290.000000pt" viewBox="0 0 290.000000 290.000000"
 preserveAspectRatio="xMidYMid meet">
<metadata>
Created by potrace 1.11, written by Peter Selinger 2001-2013
</metadata>
<g transform="translate(0.000000,290.000000) scale(0.100000,-0.100000)"
fill="#000000" stroke="none">
<path d="M1210 2771 c0 -23 5 -41 10 -41 6 0 10 15 10 34 0 19 -4 38 -10 41
-6 4 -10 -10 -10 -34z"/>
<path d="M1256 2802 c-4 -7 -5 -23 -2 -36 4 -16 -1 -29 -14 -41 -17 -16 -19
-26 -14 -96 6 -78 6 -79 -17 -79 -23 1 -23 1 -5 15 11 8 16 15 10 15 -5 0 -10
17 -11 38 -5 127 -7 154 -15 158 -4 3 -9 -1 -9 -8 -1 -7 -2 -17 -4 -23 -1 -5
-3 -37 -4 -70 -2 -52 -4 -56 -11 -31 -5 16 -9 49 -8 73 0 24 -2 47 -6 50 -3 4
-23 2 -44 -3 -36 -9 -37 -11 -38 -54 -2 -96 -4 -121 -12 -116 -5 3 -8 41 -6
86 1 44 -2 80 -7 80 -10 0 -15 -74 -11 -153 2 -41 -1 -53 -23 -74 -14 -14 -25
-32 -25 -39 0 -17 -20 -19 -21 -1 0 6 -6 -4 -11 -23 l-11 -35 -13 40 c-13 41
-13 40 -20 -39 -5 -60 -14 -56 -14 7 0 35 -4 57 -11 57 -6 0 -9 -7 -6 -15 4
-8 2 -17 -3 -20 -5 -3 -7 -12 -3 -20 3 -8 0 -15 -6 -15 -6 0 -11 15 -11 34 0
39 -19 60 -22 24 0 -13 -2 -27 -3 -33 -2 -5 -3 -23 -4 -39 -1 -42 -8 -29 -15
28 -6 59 -16 73 -16 23 0 -55 -20 -45 -21 11 l-1 47 -14 -55 c-11 -46 -12 -87
-5 -157 0 -7 10 -13 21 -13 11 0 20 -5 20 -11 0 -6 -7 -8 -16 -5 -9 3 -23 6
-32 6 -15 0 -17 11 -14 83 3 64 1 79 -8 70 -7 -6 -13 -41 -14 -77 -1 -36 -6
-67 -11 -69 -4 -1 -7 31 -6 71 1 43 -2 72 -8 72 -15 0 -21 -29 -18 -88 2 -29
-2 -57 -7 -62 -8 -6 -11 14 -11 62 0 39 -4 73 -10 75 -6 2 -9 -18 -7 -52 3
-35 0 -55 -7 -55 -7 0 -11 22 -11 54 0 30 -4 57 -9 60 -10 6 -17 -232 -12
-387 1 -16 5 -26 11 -22 5 3 10 45 10 92 0 48 3 83 7 79 4 -4 8 -51 9 -104 0
-89 2 -97 20 -97 13 0 19 -7 20 -25 1 -14 4 -32 7 -40 3 -8 8 -26 10 -40 2
-14 5 16 7 65 2 75 4 84 11 55 5 -19 9 -55 8 -80 -1 -75 1 -90 11 -90 6 0 10
26 10 57 0 106 17 29 19 -89 1 -21 6 -38 11 -38 6 0 10 34 10 82 0 45 3 78 7
74 4 -4 8 -60 9 -124 3 -155 3 -152 14 -152 6 0 8 11 4 25 -3 14 -3 33 1 42
15 35 21 -28 18 -167 -2 -74 -4 -144 -4 -155 -1 -41 -11 -87 -17 -81 -6 7 -5
106 2 169 2 16 0 25 -5 20 -4 -4 -10 -44 -13 -87 -3 -44 -10 -84 -16 -90 -7
-7 -10 -5 -10 4 0 13 -2 13 -10 0 -5 -8 -10 -49 -10 -90 0 -41 -2 -88 -4 -105
-1 -16 -3 -40 -4 -52 -1 -13 -6 -23 -12 -23 -5 0 -7 7 -4 15 4 8 1 15 -5 15
-10 0 -15 -25 -12 -62 1 -9 -3 -19 -9 -23 -6 -4 -10 4 -10 19 0 26 -19 37 -21
14 -1 -7 -3 -23 -4 -36 -4 -41 -15 -36 -15 6 0 60 -14 52 -18 -10 -4 -69 -16
-84 -22 -28 -3 25 -9 43 -15 40 -5 -3 -8 -13 -7 -22 4 -21 -9 -23 -26 -6 -9 9
-12 0 -12 -41 0 -35 -4 -50 -11 -45 -6 3 -8 16 -6 28 3 11 2 30 -2 41 -6 15
-10 8 -16 -30 l-8 -50 -12 35 c-12 34 -12 33 -20 -50 l-9 -85 -5 62 c-6 65
-21 98 -21 45 0 -17 -4 -34 -10 -37 -6 -4 -10 5 -10 19 0 14 -5 26 -11 26 -6
0 -9 -9 -6 -20 4 -17 1 -20 -16 -18 -20 3 -22 -2 -27 -69 -6 -90 -20 -107 -20
-24 0 39 -4 60 -10 56 -5 -3 -10 -31 -10 -61 0 -30 -4 -54 -10 -54 -5 0 -10
23 -10 50 0 28 -4 50 -10 50 -6 0 -10 -31 -10 -72 0 -79 -10 -85 -18 -11 -2
27 -6 50 -8 52 -9 10 -13 -9 -15 -82 -1 -42 -6 -77 -11 -77 -5 0 -9 17 -7 38
3 61 0 92 -11 92 -6 0 -10 -38 -10 -95 0 -55 -4 -95 -10 -95 -5 0 -9 15 -8 32
0 18 0 58 -1 88 -3 85 -19 31 -20 -70 -1 -46 -5 -88 -10 -93 -6 -6 -9 6 -9 29
0 22 -1 50 -2 64 l-2 25 -8 -25 c-4 -14 -8 -55 -9 -92 -1 -38 -5 -68 -11 -68
-5 0 -10 16 -10 35 0 19 -5 35 -11 35 -7 0 -10 -52 -8 -159 1 -87 -1 -163 -5
-169 -7 -12 8 -25 18 -15 3 3 6 57 6 120 0 62 4 113 9 113 5 0 8 -59 7 -131
-2 -146 2 -199 15 -199 5 0 8 3 8 8 -4 21 2 42 11 42 6 0 10 -25 10 -55 0 -32
4 -55 11 -55 6 0 8 8 6 18 -3 9 -2 37 3 62 6 38 8 40 10 15 1 -16 1 -38 0 -49
-3 -27 23 -15 31 15 8 28 12 17 9 -28 -2 -40 15 -43 28 -5 l10 27 1 -25 c1
-24 5 -26 50 -27 38 -1 51 3 54 16 4 14 5 14 6 -1 1 -15 10 -18 51 -18 49 0
49 0 57 38 l7 37 6 -38 c6 -47 24 -49 24 -2 0 19 4 35 8 35 4 0 8 -16 8 -35 0
-19 5 -35 10 -35 6 0 10 21 10 48 1 37 3 43 11 29 6 -10 9 -29 7 -44 -2 -15 3
-28 10 -30 9 -3 12 11 12 51 0 32 4 56 10 56 6 0 10 -6 9 -12 -5 -38 2 -98 12
-98 6 0 9 21 8 55 -1 30 0 58 4 62 4 3 8 -7 9 -23 2 -50 3 -53 16 -66 9 -9 12
10 12 94 0 59 4 109 9 112 4 3 8 -31 7 -76 -1 -57 3 -83 12 -85 9 -4 12 13 12
61 0 83 16 87 18 4 1 -33 4 -63 7 -66 13 -13 17 13 16 100 0 54 3 87 8 80 4
-8 7 -25 5 -39 -3 -31 13 -76 25 -69 4 3 6 17 3 31 -4 25 6 33 23 16 6 -5 20
-5 33 0 20 8 22 15 22 84 0 48 4 74 10 70 5 -3 10 -31 10 -62 0 -70 8 -64 19
13 7 53 9 57 18 34 7 -16 7 -31 1 -43 -11 -21 -5 -32 12 -22 6 4 10 33 9 71
-1 35 1 67 5 71 5 6 7 -1 10 -47 1 -22 20 -14 24 9 2 12 9 18 16 15 14 -5 26
35 26 87 0 16 5 29 11 29 5 0 9 -8 7 -18 -2 -11 2 -18 7 -18 6 1 9 13 9 29 -1
15 2 27 7 27 5 0 9 -7 9 -15 0 -8 5 -15 10 -15 6 0 10 12 10 28 0 15 5 34 10
42 8 12 10 9 10 -12 0 -16 5 -28 11 -28 6 0 9 7 6 15 -4 8 -2 17 3 20 5 3 7
12 3 20 -3 8 0 15 6 15 6 0 11 -9 11 -20 0 -22 16 -27 23 -7 4 9 7 9 18 -1 16
-14 39 -16 39 -2 0 6 -7 10 -16 10 -8 0 -12 5 -9 10 4 6 11 8 16 5 5 -4 13 5
19 19 12 33 18 33 18 0 0 -47 19 -49 27 -2 8 42 8 43 16 14 5 -16 6 -33 3 -38
-3 -4 0 -8 5 -8 6 0 11 11 11 24 0 14 5 28 10 31 6 4 10 -7 10 -24 0 -50 17
-36 26 22 l8 52 4 -50 c4 -63 22 -85 23 -29 1 21 1 47 0 56 -1 10 3 18 8 18 6
0 11 -18 11 -40 0 -41 19 -58 21 -17 1 36 9 90 14 95 3 3 5 -22 5 -56 0 -72
19 -85 21 -14 1 26 1 50 0 55 0 4 3 7 9 7 5 0 10 -16 10 -35 0 -19 5 -35 10
-35 6 0 10 21 10 48 0 34 3 43 10 32 5 -8 10 -34 10 -58 0 -26 4 -41 10 -37 5
3 10 19 10 36 0 16 5 29 10 29 6 0 10 -11 10 -25 0 -14 5 -25 11 -25 5 0 8 3
5 8 -2 4 -1 32 4 62 6 43 8 47 9 20 1 -19 4 -46 8 -60 7 -24 8 -23 19 15 8 27
13 33 13 18 1 -13 5 -23 10 -23 5 0 12 10 16 23 7 21 7 21 12 2 8 -31 23 -42
23 -18 0 33 20 39 21 6 1 -28 1 -28 13 6 l12 33 11 -23 c9 -19 12 -20 12 -6 1
21 21 23 21 2 0 -8 5 -15 10 -15 6 0 10 11 10 25 0 14 5 25 10 25 6 0 10 -11
10 -25 0 -14 5 -25 10 -25 10 0 12 6 14 65 2 57 16 40 16 -20 0 -30 5 -55 10
-55 6 0 10 15 10 34 0 51 18 54 23 4 3 -36 5 -39 11 -20 10 26 26 29 26 5 1
-16 2 -16 15 1 13 17 15 18 15 3 0 -9 5 -17 10 -17 6 0 9 3 9 8 -3 19 2 23 16
12 12 -10 16 -6 24 22 l9 33 1 -32 c1 -17 6 -35 11 -38 9 -6 14 14 11 43 -1 6
3 12 9 12 5 0 10 -7 10 -16 0 -18 24 -14 26 4 3 25 6 26 13 2 10 -34 52 -34
62 0 l7 25 7 -22 c11 -35 25 -27 25 12 0 19 5 35 11 35 5 0 8 -4 4 -10 -8 -12
5 -60 16 -60 5 0 9 9 9 20 0 11 5 20 10 20 6 0 10 -7 10 -15 0 -8 7 -15 16
-15 13 0 14 3 5 13 -14 18 -2 30 15 16 14 -12 18 -7 27 36 3 13 5 10 6 -10 2
-38 21 -72 21 -37 0 12 5 22 10 22 6 0 10 -10 10 -22 0 -19 2 -20 10 -8 5 8
10 25 10 38 0 12 5 22 10 22 6 0 10 -9 10 -20 0 -11 5 -20 11 -20 5 0 8 4 5 8
-2 4 -1 14 4 22 7 12 11 9 19 -10 10 -26 12 -23 15 32 2 29 16 32 16 4 0 -42
24 -26 25 17 1 47 15 61 16 16 1 -19 1 -40 0 -46 -1 -7 3 -13 9 -13 5 0 10 15
10 34 0 19 5 38 10 41 6 4 10 -7 10 -25 0 -18 4 -29 10 -25 6 3 10 24 10 45 0
21 5 42 10 45 6 4 10 -12 10 -40 0 -28 4 -44 10 -40 6 3 10 33 10 66 0 33 4
59 10 59 6 0 10 -24 10 -54 0 -30 5 -58 10 -61 6 -4 10 23 10 74 0 74 -9 98
-25 71 -4 -6 -11 -8 -16 -5 -5 4 -15 3 -21 -2 -7 -4 -24 -9 -38 -11 -51 -7 -5
17 67 35 l73 18 0 75 c0 41 5 82 10 90 7 10 10 -31 10 -124 0 -89 3 -137 10
-130 9 9 13 228 9 474 l-1 105 -13 -50 c-16 -60 -16 -60 -18 37 -1 42 -5 79
-9 83 -9 9 -19 -61 -17 -118 2 -42 6 -50 27 -58 33 -13 23 -21 -15 -13 -29 6
-30 7 -27 57 10 153 6 197 -21 227 -8 9 -15 24 -15 33 0 9 -4 17 -10 17 -5 0
-10 -5 -10 -11 0 -5 -5 -7 -10 -4 -6 3 -8 26 -6 50 5 63 -3 96 -23 93 -12 -2
-17 8 -21 42 -3 25 -8 40 -13 33 -4 -6 -4 -18 -1 -26 3 -8 1 -18 -5 -22 -7 -4
-11 3 -11 17 0 37 -11 68 -24 68 -12 0 -20 92 -20 228 0 23 -4 42 -8 42 -8 0
-11 -34 -8 -112 1 -41 -1 -48 -17 -48 -11 0 -23 -4 -28 -9 -10 -9 -105 -34
-110 -29 -2 2 5 14 16 27 16 19 19 20 19 6 0 -15 3 -15 15 -5 9 7 18 10 22 6
3 -3 15 2 26 11 10 10 22 18 26 18 3 0 7 30 7 68 1 37 -2 67 -7 67 -5 0 -10
-19 -10 -42 -1 -24 -2 -52 -3 -63 -1 -13 -7 -19 -17 -17 -9 1 -19 -4 -23 -13
-3 -8 -10 -15 -16 -15 -13 0 7 40 28 56 19 14 7 34 -19 34 -11 0 -45 -9 -76
-20 -69 -24 -69 -24 -53 -5 7 8 16 13 20 10 5 -3 11 -1 15 5 3 5 15 10 26 10
17 0 19 7 19 70 0 40 -4 70 -10 70 -5 0 -10 -18 -10 -40 0 -22 -4 -40 -9 -40
-5 0 -9 16 -9 36 0 20 -5 41 -11 47 -8 8 -11 -5 -11 -48 0 -32 -2 -56 -5 -54
-6 7 -13 47 -14 83 -1 24 -3 27 -16 16 -12 -10 -16 -9 -21 4 -10 26 -27 19
-20 -8 3 -14 2 -27 -3 -31 -5 -3 -11 5 -13 17 -2 16 -9 22 -20 20 -21 -3 -23
6 -5 22 7 6 10 10 7 8 -3 -2 -10 16 -16 40 -6 24 -16 42 -22 41 -11 -3 -14 6
-16 51 -1 11 -7 21 -14 24 -9 3 -11 -11 -8 -52 3 -31 0 -58 -5 -61 -8 -5 -15
112 -11 168 1 9 -3 17 -8 17 -6 0 -11 -21 -11 -47 -1 -27 -2 -61 -3 -78 0 -16
2 -38 7 -47 4 -9 3 -19 -3 -23 -10 -6 -23 31 -20 56 2 8 2 41 1 74 -1 47 -4
56 -12 42 -7 -12 -17 -16 -30 -12 -10 4 -19 3 -19 -1 0 -19 24 -84 32 -84 12
0 10 -98 -2 -105 -6 -4 -10 9 -10 32 0 21 -9 66 -20 100 -11 35 -17 70 -14 78
4 8 1 15 -5 15 -11 0 -16 -26 -12 -64 1 -21 -44 -86 -61 -86 -6 0 1 15 16 34
18 24 26 47 26 75 0 51 -20 54 -21 4 l-2 -38 -10 38 c-11 39 -26 50 -28 20 0
-10 -5 -5 -9 11 -5 16 -7 33 -4 38 3 4 0 8 -5 8 -6 0 -12 -8 -12 -17 -3 -44
-9 -87 -14 -91 -3 -3 -5 19 -6 49 -1 30 -5 65 -9 79 -8 25 -8 25 -10 -5 -1
-16 -2 -36 -1 -42 1 -7 -3 -13 -9 -13 -5 0 -10 18 -10 39 0 36 -2 39 -25 37
-14 -1 -28 -5 -31 -9 -3 -3 -12 -3 -20 0 -10 4 -14 -4 -14 -28 0 -38 -10 -34
-14 7 -2 17 -9 29 -17 29 -9 0 -13 -8 -11 -22 2 -13 -2 -23 -7 -23 -6 0 -11
14 -11 31 0 17 -4 28 -10 24 -5 -3 -10 -24 -10 -46 0 -24 -4 -38 -10 -34 -5 3
-10 22 -10 40 0 33 -1 34 -31 28 -21 -4 -34 -1 -39 8 -13 20 -22 5 -23 -40 -1
-23 -5 -41 -8 -41 -9 0 -20 125 -13 144 3 9 1 16 -5 16 -11 0 -16 -32 -12 -82
1 -14 -3 -29 -8 -33 -10 -5 -16 44 -14 103 1 6 -3 12 -8 12 -5 0 -9 -36 -9
-80 0 -108 -17 -102 -19 7 -1 48 -4 89 -6 92 -12 11 -19 -14 -17 -59 1 -28 -2
-50 -8 -50 -6 0 -10 32 -10 75 0 43 -4 75 -10 75 -5 0 -10 -25 -10 -55 0 -30
-4 -55 -9 -55 -5 0 -9 23 -8 50 0 29 -5 55 -12 63 -10 10 -12 8 -11 -8 1 -11
1 -31 0 -45 -2 -22 -4 -20 -14 12 -17 57 -24 55 -25 -9 0 -58 8 -86 25 -83 9
1 26 -61 19 -69 -3 -2 -9 7 -14 20 -5 13 -23 40 -40 59 -25 29 -28 37 -17 45
10 8 12 22 7 50 -4 27 -9 36 -15 27z m44 -224 c50 -104 85 -221 107 -360 9
-59 21 -108 26 -108 20 0 118 139 139 198 15 39 29 42 23 5 -2 -16 -9 -62 -16
-103 -12 -80 -31 -166 -55 -239 -25 -75 -96 -243 -121 -283 -13 -21 -23 -42
-23 -47 0 -11 39 -35 45 -29 5 5 78 161 100 213 44 107 88 267 105 385 22 160
23 148 -4 152 l-24 3 23 60 c13 33 26 69 30 80 6 20 7 20 17 1 18 -33 55 -178
62 -248 5 -45 12 -68 20 -68 13 0 178 201 205 250 l15 25 7 -25 c13 -45 9
-203 -6 -260 -8 -30 -12 -56 -10 -59 3 -2 40 10 83 27 42 18 80 32 85 32 4 0
-6 -25 -23 -56 -16 -31 -28 -60 -25 -64 2 -4 63 13 135 37 73 23 136 43 142
43 5 0 -8 -19 -30 -42 -96 -103 -172 -194 -172 -207 0 -10 12 -12 58 -6 l57 7
-45 -46 c-24 -25 -42 -47 -40 -48 3 0 74 -8 159 -17 l154 -16 -89 -54 c-49
-30 -99 -59 -111 -65 -35 -17 -28 -31 25 -48 26 -9 98 -37 161 -61 129 -51
127 -54 -32 -59 -57 -2 -93 -8 -99 -16 -13 -15 -24 -8 107 -76 61 -32 114 -62
118 -66 4 -3 -40 -24 -97 -46 -58 -21 -108 -45 -111 -52 -6 -15 20 -26 137
-55 48 -12 88 -24 88 -27 0 -14 -337 -104 -490 -131 -151 -26 -354 -35 -445
-20 l-70 12 -29 66 c-17 36 -45 85 -63 108 -18 24 -33 47 -33 50 0 13 269 135
382 174 113 38 272 81 368 99 40 7 45 11 42 32 -3 31 -3 31 -43 20 -18 -5 -70
-16 -114 -26 -96 -20 -214 -55 -310 -90 -98 -36 -96 -35 -236 -104 l-126 -62
-54 52 c-63 61 -130 105 -237 159 l-77 39 -22 94 c-38 170 -132 393 -211 503
-20 28 -59 74 -86 103 -27 29 -43 52 -35 52 25 0 129 -40 210 -81 44 -21 82
-38 86 -37 10 4 10 5 -21 113 -14 49 -24 90 -23 91 1 1 40 -31 87 -72 94 -82
90 -81 132 -4 36 66 58 161 65 278 3 56 7 102 9 102 2 0 22 -37 44 -82z m-150
-1160 c146 -81 260 -187 337 -317 61 -101 62 -110 17 -159 -37 -42 -60 -49
-110 -36 -17 4 -23 16 -26 48 -14 123 -109 216 -321 312 -104 48 -107 59 -39
138 53 62 54 62 142 14z m-94 -214 c87 -38 189 -110 220 -155 15 -22 33 -63
40 -91 14 -51 13 -53 -13 -80 -33 -34 -49 -35 -104 -3 -62 35 -113 33 -173 -6
-26 -17 -60 -48 -76 -68 -17 -20 -76 -94 -133 -166 -116 -146 -266 -293 -351
-344 -89 -53 -194 -52 -212 3 -14 41 -6 112 16 157 53 105 255 273 500 415 46
27 107 71 134 97 l49 49 -7 76 c-5 66 -3 82 14 110 11 17 24 32 29 32 5 0 35
-12 67 -26z"/>
<path d="M1257 2213 c-11 -349 -10 -363 12 -363 11 0 22 3 24 8 3 4 8 134 12
290 l8 282 -25 0 -25 0 -6 -217z"/>
<path d="M1856 2222 c-24 -81 -119 -262 -138 -262 -15 0 -8 -41 8 -47 23 -8
62 40 117 147 42 79 84 187 76 194 -2 2 -14 7 -26 10 -19 6 -24 1 -37 -42z"/>
<path d="M1048 2200 c-15 -9 -14 -17 12 -84 68 -184 110 -392 110 -550 0 -76
2 -84 21 -89 13 -3 22 0 26 10 9 24 -5 250 -22 333 -30 155 -101 381 -121 387
-5 1 -16 -2 -26 -7z"/>
<path d="M902 2118 c-7 -9 10 -43 60 -120 62 -95 72 -107 89 -98 10 6 19 16
19 23 0 11 -45 84 -68 113 -5 5 -20 29 -33 52 -24 42 -48 53 -67 30z"/>
<path d="M2067 1958 c-59 -44 -107 -86 -107 -93 0 -7 6 -17 13 -23 9 -8 40 10
120 69 105 79 119 96 94 117 -9 8 -40 -10 -120 -70z"/>
<path d="M1913 2006 c-4 -8 -28 -36 -53 -63 -25 -26 -72 -79 -104 -116 -47
-56 -55 -71 -45 -83 7 -8 18 -14 25 -12 7 2 61 59 120 127 84 97 105 127 97
139 -13 22 -30 26 -40 8z"/>
<path d="M1920 1774 c-111 -59 -259 -160 -268 -182 -2 -8 2 -21 11 -29 14 -15
19 -13 51 15 60 53 153 111 251 159 84 40 93 47 86 66 -4 12 -12 22 -17 24 -5
1 -56 -22 -114 -53z"/>
<path d="M2150 1716 c-82 -16 -106 -25 -108 -39 -5 -26 16 -29 103 -12 44 8
93 15 108 15 25 0 28 3 25 27 -2 14 -7 27 -13 29 -5 1 -57 -8 -115 -20z"/>
<path d="M2047 1354 c-2 -3 -2 -14 0 -27 l4 -22 202 3 c111 2 203 4 203 5 1 1
4 11 6 22 3 19 -3 20 -204 22 -114 0 -209 -1 -211 -3z"/>
<path d="M1690 1178 c-128 -10 -130 -11 -130 -44 0 -22 3 -25 23 -20 12 3 91
11 176 18 147 11 387 2 539 -19 40 -5 42 -4 42 20 0 22 -5 25 -52 31 -222 27
-399 31 -598 14z"/>
<path d="M1475 2770 c3 -5 8 -10 11 -10 2 0 4 5 4 10 0 6 -5 10 -11 10 -5 0
-7 -4 -4 -10z"/>
<path d="M2016 2581 c-4 -5 -2 -12 3 -15 5 -4 12 -2 15 3 4 5 2 12 -3 15 -5 4
-12 2 -15 -3z"/>
<path d="M945 2520 c3 -5 8 -10 11 -10 2 0 4 5 4 10 0 6 -5 10 -11 10 -5 0 -7
-4 -4 -10z"/>
<path d="M557 2423 c-2 -4 -5 -88 -6 -186 -1 -125 2 -177 9 -172 6 4 10 25 10
48 -1 23 -1 102 0 176 1 126 -2 153 -13 134z"/>
<path d="M2200 2420 c0 -5 5 -10 10 -10 6 0 10 5 10 10 0 6 -4 10 -10 10 -5 0
-10 -4 -10 -10z"/>
<path d="M515 2321 c-3 -5 -1 -12 5 -16 5 -3 10 1 10 9 0 18 -6 21 -15 7z"/>
<path d="M2388 2278 c-5 -60 0 -90 13 -82 12 7 12 134 0 134 -5 0 -11 -24 -13
-52z"/>
<path d="M2430 2250 c0 -33 4 -60 10 -60 6 0 10 27 10 60 0 33 -4 60 -10 60
-6 0 -10 -27 -10 -60z"/>
<path d="M2470 2275 c0 -14 4 -25 10 -25 5 0 9 11 8 25 -1 14 -6 25 -10 25 -4
0 -8 -11 -8 -25z"/>
<path d="M519 2240 c-6 -45 -4 -58 7 -48 3 3 4 26 2 49 l-3 44 -6 -45z"/>
<path d="M2622 1890 c0 -14 2 -19 5 -12 2 6 2 18 0 25 -3 6 -5 1 -5 -13z"/>
<path d="M2662 1805 c-1 -25 2 -45 6 -45 4 0 9 20 10 45 1 25 -2 45 -6 45 -4
0 -9 -20 -10 -45z"/>
<path d="M761 1734 c0 -11 3 -14 6 -6 3 7 2 16 -1 19 -3 4 -6 -2 -5 -13z"/>
<path d="M2730 1634 c0 -8 5 -12 10 -9 6 3 10 10 10 16 0 5 -4 9 -10 9 -5 0
-10 -7 -10 -16z"/>
<path d="M2777 1583 c-4 -6 -3 -21 1 -34 11 -29 21 -12 12 21 -3 15 -9 20 -13
13z"/>
<path d="M795 1547 c-4 -10 -5 -21 -1 -24 10 -10 18 4 13 24 -4 17 -4 17 -12
0z"/>
<path d="M2811 1363 c-1 -18 4 -33 9 -33 12 0 12 17 0 45 -7 17 -9 15 -9 -12z"/>
<path d="M2810 1310 c0 -5 5 -10 10 -10 6 0 10 5 10 10 0 6 -4 10 -10 10 -5 0
-10 -4 -10 -10z"/>
<path d="M2810 1270 c0 -11 5 -20 10 -20 6 0 10 9 10 20 0 11 -4 20 -10 20 -5
0 -10 -9 -10 -20z"/>
<path d="M2812 1210 c1 -16 5 -27 10 -24 11 7 10 54 -1 54 -5 0 -9 -13 -9 -30z"/>
<path d="M2810 1150 c0 -5 5 -10 11 -10 5 0 7 5 4 10 -3 6 -8 10 -11 10 -2 0
-4 -4 -4 -10z"/>
<path d="M2729 968 c-2 -24 -2 -63 1 -88 4 -37 6 -41 12 -20 10 41 10 150 0
150 -6 0 -12 -19 -13 -42z"/>
<path d="M2770 884 c0 -8 5 -12 10 -9 6 4 8 11 5 16 -9 14 -15 11 -15 -7z"/>
<path d="M78 575 c-7 -33 0 -51 13 -38 5 5 5 22 0 38 l-8 30 -5 -30z"/>
<path d="M1435 590 c-3 -5 1 -10 10 -10 9 0 13 5 10 10 -3 6 -8 10 -10 10 -2
0 -7 -4 -10 -10z"/>
<path d="M42 495 c-8 -59 -8 -336 0 -308 5 18 7 99 5 180 -1 82 -4 139 -5 128z"/>
<path d="M820 180 c0 -5 5 -10 11 -10 5 0 7 5 4 10 -3 6 -8 10 -11 10 -2 0 -4
-4 -4 -10z"/>
<path d="M70 130 c0 -19 3 -21 12 -12 9 9 9 15 0 24 -9 9 -12 7 -12 -12z"/>
<path d="M770 134 c0 -8 5 -12 10 -9 6 3 10 10 10 16 0 5 -4 9 -10 9 -5 0 -10
-7 -10 -16z"/>
<path d="M695 70 c-3 -5 -1 -10 4 -10 6 0 11 5 11 10 0 6 -2 10 -4 10 -3 0 -8
-4 -11 -10z"/>
<path d="M100 60 c0 -5 7 -10 16 -10 8 0 12 5 9 10 -3 6 -10 10 -16 10 -5 0
-9 -4 -9 -10z"/>
<path d="M190 30 c0 -5 5 -10 11 -10 5 0 7 5 4 10 -3 6 -8 10 -11 10 -2 0 -4
-4 -4 -10z"/>
</g>
</svg>
